<svg width="106" height="106" viewBox="0 0 106 106" fill="none" xmlns="http://www.w3.org/2000/svg">
<mask id="mask0_233_252" style="mask-type:alpha" maskUnits="userSpaceOnUse" x="0" y="0" width="106" height="106">
<g clip-path="url(#clip0_233_252)">
<path d="M0 7.59225C0 3.39863 3.48475 0 7.78437 0H98.2156C102.515 0 106 3.39863 106 7.59225V98.4078C106 102.601 102.515 106 98.2156 106H7.78437C3.48475 106 0 102.601 0 98.4078V7.59225ZM32.7474 88.7352V40.8696H16.8408V88.7352H32.7474ZM24.7974 34.3307C30.3425 34.3307 33.7941 30.6605 33.7941 26.0627C33.6947 21.3656 30.3491 17.7948 24.9034 17.7948C19.4576 17.7948 15.9 21.3722 15.9 26.0627C15.9 30.6605 19.3516 34.3307 24.6914 34.3307H24.7974ZM57.3129 88.7352V62.0034C57.3129 60.5724 57.4189 59.1414 57.8429 58.1211C58.989 55.2657 61.6059 52.3044 66.0049 52.3044C71.762 52.3044 74.0609 56.6901 74.0609 63.1296V88.7352H89.9675V61.2812C89.9675 46.5737 82.1235 39.7367 71.656 39.7367C63.2157 39.7367 59.4329 44.3742 57.3129 47.6404V47.806H57.2069L57.3129 47.6404V40.8696H41.4129C41.6116 45.3614 41.4129 88.7352 41.4129 88.7352H57.3129Z" fill="#0D99FF"/>
</g>
</mask>
<g mask="url(#mask0_233_252)">
<circle cx="51.5" cy="53.5" r="75.5" fill="#0077B5"/>
<path d="M5.3587 91.479L53.087 8.81104L100.815 91.479H5.3587Z" stroke="#025885" stroke-width="5.22388"/>
</g>
<defs>
<clipPath id="clip0_233_252">
<rect width="106" height="106" fill="white"/>
</clipPath>
</defs>
</svg>
